<svg width="400" height="400" viewBox="0 0 400 400" fill="none" xmlns="http://www.w3.org/2000/svg">
<path d="M91.8126 357.961C91.8126 357.961 78.8023 399.463 39.4017 384.781C0.000977138 370.099 11.5714 328.06 11.5714 328.06L90.1289 42.6362C90.1289 42.6362 100.911 0.579033 141.031 15.5296C181.152 30.4802 170.37 72.5373 170.37 72.5373L91.8126 357.961Z" fill="#5281F9"/>
<path d="M199.136 42.0553C199.136 42.0553 212.103 0.534506 251.519 15.161C290.935 29.7875 279.408 71.8427 279.408 71.8427L201.149 357.378C201.149 357.378 190.412 399.45 150.276 384.556C110.139 369.663 120.877 327.59 120.877 327.59L199.136 42.0553Z" fill="#FED344"/>
<path d="M308.2 42.0553C308.2 42.0553 321.167 0.534506 360.583 15.161C399.999 29.7875 388.473 71.8427 388.473 71.8427L310.214 357.378C310.214 357.378 299.476 399.45 259.34 384.556C219.204 369.663 229.941 327.59 229.941 327.59L308.2 42.0553Z" fill="#FF5949"/>
</svg>
